<svg xmlns="http://www.w3.org/2000/svg" viewBox="0 0 288 90"><style>.st0{fill:#454b66}</style><g id="Layer_2"><path class="st0" d="M111.6 72.5c-.9 0-1.6.2-2.2.6-.6.4-1.1.9-1.5 1.6-.4.6-.6 1.3-.8 2.1-.2.8-.2 1.5-.2 2.3 0 .7.1 1.5.2 2.2.2.8.4 1.4.8 2 .4.6.8 1.1 1.4 1.5.6.4 1.3.6 2.2.6 1.3 0 2.3-.4 3.1-1.1.7-.7 1.2-1.7 1.3-3h5.3c-.4 2.7-1.4 4.7-3.1 6.1-1.7 1.4-3.9 2.1-6.6 2.1-1.5 0-2.9-.3-4.2-.8-1.3-.5-2.3-1.2-3.2-2.1-.9-.9-1.6-2-2.1-3.3-.5-1.3-.7-2.6-.7-4.2s.2-3 .7-4.3c.5-1.3 1.1-2.5 2-3.5.9-1 2-1.7 3.2-2.3 1.3-.5 2.7-.8 4.4-.8 1.2 0 2.3.2 3.5.5 1.1.3 2.1.8 3 1.4.9.6 1.6 1.4 2.1 2.4.5.9.9 2.1.9 3.4h-5.4c-.3-2.2-1.7-3.4-4.1-3.4zm15.7-11.3v14.9l7-7.3h6.6l-7.6 7.4 8.5 12.8H135l-5.5-9-2.1 2.1V89h-5.5V61.2h5.4zm16.2 6.7c.4-1.3 1-2.5 1.9-3.5.8-1 1.9-1.8 3.1-2.3 1.3-.6 2.7-.8 4.3-.8 1.2 0 2.4.2 3.6.6 1.1.4 2.1.9 3 1.7.9.7 1.5 1.6 2 2.7s.8 2.3.8 3.6c0 1.4-.2 2.6-.7 3.5-.4 1-1 1.9-1.8 2.6-.7.8-1.6 1.5-2.5 2.1-.9.6-1.9 1.2-2.8 1.9-.9.6-1.8 1.3-2.7 2-.9.7-1.7 1.5-2.3 2.5h12.9V89h-20c0-1.6.2-3 .7-4.1.5-1.2 1.1-2.2 1.9-3.1.8-.9 1.7-1.8 2.7-2.6l3.3-2.4c.6-.4 1.2-.8 1.9-1.3.7-.4 1.3-.9 1.9-1.4.6-.5 1-1.1 1.4-1.8.4-.6.6-1.4.6-2.2 0-1.3-.4-2.4-1.2-3.1-.8-.7-1.7-1.1-2.9-1.1-.8 0-1.5.2-2 .6-.6.4-1 .9-1.3 1.5-.3.6-.6 1.3-.7 2-.1.7-.2 1.5-.2 2.2H143c-.1-1.5.1-3 .5-4.3zm33.8-6.7c1.3 0 2.5.1 3.6.4 1.1.2 2 .6 2.8 1.2.8.5 1.4 1.2 1.8 2.1.4.9.6 2 .6 3.3 0 1.4-.3 2.6-1 3.5-.6.9-1.6 1.7-2.8 2.3 1.7.5 3 1.4 3.8 2.6.8 1.2 1.3 2.7 1.3 4.5 0 1.4-.3 2.6-.8 3.6s-1.3 1.9-2.2 2.5c-.9.6-2 1.1-3.2 1.4-1.2.3-2.4.5-3.6.5h-13.5V61.2h13.2zm-.8 11.3c1.1 0 2-.3 2.7-.8.7-.5 1.1-1.4 1.1-2.5 0-.6-.1-1.2-.4-1.6-.2-.4-.5-.7-.9-1-.4-.2-.8-.4-1.3-.5-.5-.1-1-.1-1.6-.1h-5.7v6.5h6.1zm.4 11.8c.6 0 1.2-.1 1.7-.2s1-.3 1.4-.6c.4-.3.7-.6 1-1.1.2-.5.4-1.1.4-1.8 0-1.4-.4-2.4-1.2-3.1-.8-.6-1.9-.9-3.2-.9h-6.7v7.6h6.6zm11.6-9.2c.1-1.3.4-2.4 1-3.2.6-.9 1.3-1.5 2.2-2.1.9-.5 1.9-.9 3-1.1 1.1-.2 2.2-.3 3.3-.3 1 0 2 .1 3.1.2 1 .1 2 .4 2.8.8.9.4 1.6 1 2.1 1.7s.8 1.7.8 2.9v10.5c0 .9.1 1.8.2 2.6s.3 1.5.5 1.9h-5.6c-.1-.3-.2-.6-.3-1-.1-.3-.1-.7-.1-1-.9.9-1.9 1.5-3.1 1.9-1.2.4-2.4.5-3.7.5-1 0-1.9-.1-2.7-.4-.8-.2-1.6-.6-2.2-1.1-.6-.5-1.1-1.1-1.5-1.9-.4-.8-.5-1.6-.5-2.7s.2-2.1.6-2.8c.4-.7.9-1.3 1.6-1.8.6-.4 1.4-.8 2.2-1 .8-.2 1.6-.4 2.5-.5.8-.1 1.7-.2 2.5-.3.8-.1 1.5-.2 2.1-.4.6-.2 1.1-.4 1.5-.7.4-.3.5-.7.5-1.3 0-.6-.1-1.1-.3-1.4-.2-.4-.5-.6-.8-.8-.3-.2-.7-.3-1.1-.4-.4-.1-.9-.1-1.4-.1-1.1 0-1.9.2-2.6.7-.6.5-1 1.2-1.1 2.3h-5.5zm12.8 4.1c-.2.2-.5.4-.9.5-.4.1-.7.2-1.1.3-.4.1-.8.1-1.3.2-.4.1-.9.1-1.3.2l-1.2.3c-.4.1-.8.3-1.1.5-.3.2-.5.5-.7.8-.2.3-.3.8-.3 1.3s.1.9.3 1.2c.2.3.4.6.7.8s.7.3 1.1.4c.4.1.8.1 1.3.1 1.1 0 1.9-.2 2.5-.5.6-.4 1-.8 1.3-1.3.3-.5.5-1 .5-1.5.1-.5.1-.9.1-1.2v-2.1zm16.3-6.7c-.9 0-1.6.2-2.2.6-.6.4-1.1.9-1.5 1.6-.4.6-.6 1.3-.8 2.1-.2.8-.2 1.5-.2 2.3 0 .7.1 1.5.2 2.2.2.8.4 1.4.8 2 .4.6.8 1.1 1.4 1.5.6.4 1.3.6 2.2.6 1.3 0 2.3-.4 3.1-1.1.7-.7 1.2-1.7 1.3-3h5.3c-.4 2.7-1.4 4.7-3.1 6.1s-3.9 2.1-6.6 2.1c-1.5 0-2.9-.3-4.2-.8-1.3-.5-2.3-1.2-3.2-2.1-.9-.9-1.6-2-2.1-3.3-.5-1.3-.7-2.6-.7-4.2s.2-3 .7-4.3c.5-1.3 1.1-2.5 2-3.5.9-1 2-1.7 3.2-2.3 1.3-.5 2.7-.8 4.4-.8 1.2 0 2.3.2 3.5.5 1.1.3 2.1.8 3 1.4.9.6 1.6 1.4 2.1 2.4.5.9.9 2.1.9 3.4h-5.4c-.4-2.2-1.7-3.4-4.1-3.4zm15.7-11.3v14.9l7-7.3h6.6l-7.6 7.4 8.5 12.8H241l-5.5-9-2.1 2.1V89h-5.5V61.2h5.4z"/><path d="M264 68.5v3.8h-10V77h8.6v3.5H254V89h-4.5V68.5H264zm7.2 0l4.8 14.2h.1l4.6-14.2h6.4V89h-4.2V74.4h-.1l-5 14.6h-3.5l-5-14.4h-.1V89H265V68.5h6.2z" fill="#726e97"/><path class="st0" d="M35.1 51c1.3 0 2.5 3.1 4.8.8 1.4.7 2.5 0 2.5 0s0-.1-.1-.1c.1 0 1.6.1-.5-2.3.9 1 .5 2.5-1.7 1.2-.5-.3-.7-.9-.7-.9-1.7 1.2-2.6 0-4.3.2-.4-.6-.8-1-.8-1s-.8.3-.9.5c-.2.6.9 2.5.9 2.5s.5-.9.8-.9zm1.1-8.5s.1 0 0 0c.1 0 .1 0 0 0zm11.6 15c.6-2.3-1.2-3.3-2.3-4.7.7 1.5 1.5 3.1 2.3 4.7zm-3.4 29.6c.4.2.5.2 0 0z"/><path class="st0" d="M71.3 59.4c1.4 0 2.8.1 4 .4 1.3.3 2.5.8 3.4 1.4 1 .7 1.8 1.7 2.4 2.8.5 1.1.8 2.5.8 4.1 0 1.3-.2 2.5-.7 3.5.1.1.1.2.2.3.2-.4.4-.7.6-1.1.7-1.1 1.6-2 2.8-2.6 1-.6 2.2-1.1 3.5-1.3l1.8-.3.1-.1c.2 0 .4-.1.5-.2.3-.2.5-.6.5-1 0 0 .1 0 .1-.1.5-.4.6-1.1.3-1.6l-.3-.3v-.1c.1-.1.2-.2.3-.4h.4c.5-.2.8-.7.7-1.2v-.1s0-.1.1-.1h.7c.8-.2 1.3-1.1 1-1.9-.1-.2-.1-.4-.3-.5l.1-.1c.1-.2.2-.3.3-.5.2 0 .4-.1.6-.2.3-.3.2-.7-.1-1l-.1-.1c.1-.1.2-.2.4-.3l.3-.6c.1 0 .3-.1.4-.2.2-.2.2-.6-.1-.8.1 0 .3-.1.4-.2.3-.3.2-.7-.1-1-.1-.1-.1-.1-.2-.1 0-.3-.1-.7-.4-.9-.1-.1-.3-.2-.5-.3.2 0 .4-.1.6-.2.5-.4.7-1.1.3-1.7 0-.1-.1-.1-.1-.2.3-.1.5-.4.6-.7.1-.2.1-.4 0-.6.2-.1.4-.2.4-.5.1-.4-.1-.8-.5-.9h-.1c.1-.1.2-.2.2-.4.1-.2.1-.4 0-.6l.3-.3c.1-.3-.1-.6-.4-.7.1-.1.2-.2.3-.4.1-.4-.1-.8-.5-.9h-.2c0-.2.1-.4.1-.6.5-.1.9-.6 1-1.1.1-.2 0-.5 0-.7.1-.2.2-.3.3-.6.1-.4 0-.7-.3-1 0-.4-.4-.8-.9-.9 0-.1 0-.3-.1-.4.2-.2.3-.4.4-.7.1-.5-.1-1.1-.5-1.4 0-.1 0-.1.1-.2.1-.7-.2-1.3-.8-1.6V35l.3-.3c.1-.3 0-.6-.3-.7l.3-.3c.1-.3 0-.6-.2-.8.3-.3.5-.7.4-1.1 0-.2-.1-.3-.3-.5 0-.2.1-.3 0-.5-.1-.5-.7-.8-1.3-.7-.1-.2-.2-.4-.3-.5.1-.2.1-.4 0-.6-.1-.4-.4-.7-.8-.8v-.1c0-.1 0-.1-.1-.2.1-.1.2-.2.2-.4.1-.4-.2-.7-.6-.8h-.1c.1-.1.1-.3.2-.4 0-.2 0-.4-.1-.6v-.1c.1-.1.2-.2.2-.4 0-.3-.2-.6-.5-.6.1-.1.2-.2.2-.4 0-.1.1-.3 0-.4-.1-.4-.4-.8-.8-.9v-.2c0-.2-.1-.3-.3-.5 0-.2.1-.3 0-.5s-.2-.4-.3-.5c0-.1.1-.2 0-.4-.1-.4-.5-.7-.9-.7.1-.2.2-.4.1-.6-.1-.5-.6-.9-1.1-.9-.1 0-.2.1-.3.1l-.1-.1c-.2-.3-.5-.5-.9-.6 0-.2-.1-.3-.3-.5 0-.2.1-.3 0-.5-.1-.5-.7-.8-1.3-.7 0 0 0-.1-.1-.1-.1-.1-.1-.3-.2-.4.1-.2.1-.4 0-.6-.1-.4-.4-.7-.8-.8v-.1c-.1-.5-.6-.9-1.2-.8-.3-.5-.8-.8-1.3-.8h-.2v-.3c-.1-.6-.7-1.1-1.4-1-.3 0-1.8-.7-2-.5-.1-.3-.3-.6-.6-.8-.1-.2-.2-.4-.4-.6-.2-.3-.6-.4-.9-.5.1-.4 0-.8-.3-1.1-.5-.5-1.3-.5-1.7 0l-.1.1c-.1-.2-.2-.5-.4-.6-.1-.1-.4-.3-.8-.4 0-.3-.1-.5-.3-.7-.4-.4-1-.4-1.4 0 0-.3-.1-.5-.3-.7-.5-.5-1.3-.5-1.7 0 0 0 0 .1-.1.1s-.1-.1-.2-.1c-.1.1-.1.2-.2.2-.1-.7-.7-1.2-1.5-1.2-.2 0-.3 0-.5.1l-.1-.1c-.3-.3-.8-.2-1.1.1h-.2c-.1-.1-.1-.2-.2-.2-.2-.2-.4-.3-.6-.3 0-.2-.1-.3-.2-.4-.3-.2-.7-.2-.9.1 0-.2-.1-.3-.3-.4-.1-.1-.1-.1-.2-.1-.4-.4-1-.7-1.6-.8-.7-.1-1.3 0-1.8.4-.1 0-.3.1-.5.3 0-.2 0-.5-.2-.7-.3-.6-.9-.6-1.2-.2 0 0 0 .1-.1.1-.1-.2-.2-.3-.3-.4-.2-.2-.4-.3-.6-.4 0-.2-.1-.3-.2-.5-.3-.3-.7-.3-.9 0 0-.2-.1-.3-.2-.5-.3-.3-.8-.3-1.2 0l-.2.2c-.4-.1-.8 0-1.1.4-.3.3-.4.6-.4.9-.2-.3-.5-.6-.9-.7-.2-.1-.5 0-.7 0 .1-.3-.1-.4-.4-.5-.4-.1-.9.2-1 .6v.1c-.1-.1-.3-.2-.5-.2-.2-.1-.5 0-.7 0-.1-.1-.2-.3-.4-.3-.4-.1-.7.1-.8.5-.1-.1-.3-.2-.4-.3-.3-.1-.7.1-.9.3-.1 0-.2.1-.3.2-.3-.7-1.1-1-1.9-.7-.4.2-.7.5-.8.9-.1 0-.2 0-.4.1s-.3.2-.5.4c-.3-.1-.6-.1-.9 0-.3-.4-.8-.7-1.3-.7-.3 0-.7 0-.9.2-.2-.3-.5-.5-.9-.5-.6-.1-1.2.4-1.2 1.1v.1c-.2-.1-.4-.2-.7-.2-.4 0-.7 0-1 .2-.2-.2-.4-.3-.6-.3-.5 0-1 .3-1 .8-.2-.2-.4-.3-.7-.3-.6-.1-1.2.4-1.2 1.1v.2c-.2.1-.3.3-.3.5-.1.2-.3.3-.4.5-.4 0-.7.1-1 .4-.3.3-.5.7-.5 1.2-.6-.2-1.3-.1-1.8.3l-.2.2c-.3.1-.6.3-.8.6-.3.4-.4.8-.3 1.3v-.1c-.6-.6-1.5-.7-2.1-.1-.3.3-.5.7-.5 1.2-.6-.2-1.3-.1-1.8.3l-.1.1s-.1 0-.1-.1c-.5-.2-1.1.1-1.3.7-.1.2-.1.4 0 .6-.2 0-.4.1-.6.2-.2.1-.3.3-.4.5-.2-.1-.5 0-.7.1-.4.3-.4.8-.2 1.1l.1.1c-.2 0-.3.1-.5.2s-.3.3-.4.5c-.2 0-.3 0-.5.1l-.2.2c-.2-.1-.4-.1-.7 0-.5.2-.7.7-.5 1.1v.1c-.2 0-.4 0-.5.1-.3.1-.5.2-.6.4-.2-.1-.4-.1-.5 0-.4.1-.6.5-.4.9-.2-.1-.4-.1-.6 0-.5.2-.7.7-.5 1.1 0 .1.1.2.1.2-.2.4-.3.8-.2 1.3-.9.3-1.6.7-1.6 1.2 0 .2 0 .4.1.6-.5.5-.9 1.2-.9 2v.2c-1.1.3-1.9 1.4-1.9 2.6 0 .5.1 1 .4 1.4h-.4c-1 0-1.7.8-1.7 1.7 0 .2 0 .4.1.6-.3.4-.5.6-.6.9-.3 0-.5.1-.8.3-.2.1-.3.3-.4.5-.2-.1-.5 0-.7.1-.4.3-.4.8-.2 1.1l.1.1c-.2 0-.3.1-.5.2-.2.2-.3.3-.4.6-.2 0-.3 0-.5.1-.3.2-.3.6-.1.9-.2 0-.3.1-.5.2-.4.3-.4.8-.2 1.1l-.1.1c-.4.6-.3 1.3.3 1.7l.1.1c-.2.1-.4.3-.6.5-.2.3-.3.7-.4 1-.3 0-.5.2-.6.4-.3.4-.2 1.1.2 1.4-.2.1-.5.2-.6.5-.4.6-.3 1.3.3 1.7.2.1.3.1.4.2 0 .6.3 1.2.8 1.6 0 0 .1 0 .1.1-.3.3-.5.6-.6 1-.3 1 .3 2.1 1.3 2.5 0 .2.1.4.2.7-.1.2-.2.4-.2.6-.2.6-.1 1.2.1 1.8-.4.2-.7.6-.8 1-.2.9.3 1.8 1.2 2-.3.3-.6.7-.7 1.1-.3 1.1.4 2.3 1.5 2.5.1 0 .3 0 .4.1.1.2.3.3.5.4.1.1.1.2.2.3 0 .1 0 .1-.1.2-.1.2-.3.4-.3.6-.1.2-.1.5 0 .7-.3.1-.5.3-.5.6-.1.5.2.9.6 1.1h.1c-.1.1-.2.3-.2.5-.1.3-.1.5 0 .8-.2.1-.3.2-.3.4-.1.3.1.7.5.8-.1.1-.3.3-.3.5-.1.5.2.9.6 1.1h.3v.1c-.2.4-.1.8.1 1.2.1.2.3.4.5.5-.1.2-.1.5 0 .8.3.3.8.5 1.2.3 0 0 .1 0 .1-.1 0 .2.1.4.2.5.1.2.3.4.5.5 0 .2 0 .4.1.5.2.3.6.5 1 .3 0 .2 0 .4.1.5.2.4.8.6 1.2.3.1.1.1.3.3.4.3.3.6.4.9.4-.2.5-.1 1 .3 1.4.4.4.9.5 1.4.3 0 .2-.1.5 0 .7.1 1.4 1.4 2.4 2.7 2.3 0 .2.1.3.1.5-.1.1-.1.4 0 .5v.2c-.1 0-.2.1-.2.1-.3.3-.3.7 0 .9.1.1.3.2.5.2-.1.3 0 .6.2.8.1.1.2.1.3.2.1 1.3 1 2.3 2.3 2.4h.7l.6.6c.1.3.7.3 1.5.3 0 .4.1.8.3 1.1.2.2.4.3.6.4-.1.3 0 .6.2.8.3.4.9.4 1.2.1l.1-.1c.1.2.1.3.3.5.2.2.4.3.6.4 0 .2 0 .4.2.5.3.3.7.3 1 .1 0 .2.1.4.2.5.3.4.9.4 1.2.1l.2-.2c.4.1.8 0 1.2-.3.8.1 1.4.2.8 0 6.1 1.4 9-3.5 9-3.5 1.2 1.1 4.1 1.8 4.6 1.9-.7-.4-2.7-1.8-3.9-5.5-1.2-3.8-2.1-8.3-4.2-10.7 7.2 3.3 10.2-2.6 14.9-4.6-3.3 7-.7 8.8-.7 8.8s-1.8-3.3 2.3-7.5c.9 5.6 2.1 7.5 3.6 7.6V59.4h14.8zm-22.1 4.9c-.4.2-3.7 1.6-6.1 2.8-3.3 1.6-6.8.7-9.7-.5-2.8-1.2-2.5-6.8-3.8-11.4 0 .2-2.8-2.8-.3-9.7.2-.5.6-.6.7-.9.4-.9 1.2-1 2.2-.8 0 .5 1.8.6 2.9.6.3 0 .6-.1 1-.1.7-.1.7-.9.5-1.1-1.3-1.3-3.3-1.8-5.5-.7 1.2-1.9 5.4-1.6 6.5 0 .4-1.8-4.9-3-6.7-1.2-.1-1.2 1.3-1.9 1.4-2.9.1-1.5 5.7-1.8 5.7 2.5v-.1c.4-3.3-3.1-5.4-5.9-4.4 1-1.3 2.4-3.4 3-4.8.1 0 .1-.1.2-.1l.3-.3c.2 0 .8-.6.6-.8.1 0 .2-.1.3-.1.1-.1.2-.2.3-.4.2 0 .4-.1.5-.3 0-.1 0-.3-.1-.4.1 0 .2 0 .3-.1.1-.1.2-.2.2-.3h.3c.2 0 .3-.1.4-.3.1 0 .1 0 .2-.1h.1c.2.1.3.1.5 0 .1.2.3.3.5.2.1 0 .2-.1.2-.3.1.1.2.2.3.2.1 0 .3 0 .4-.1.2-.1.2-.3.2-.4.1 0 .1 0 .1-.1.1.1.2.2.3.2.1 0 .3.1.4 0 0 .2.2.3.3.3.3.1.6.3.7 0v-.1c.1.1.2.1.3.2.2.1.3.1.5 0 .1.2.3.3.5.2.1 0 .2-.1.2-.3.1.1.2.2.3.2.2.1.4 0 .5-.1.2 0 .4-.1.5-.4V28c.1.1.2.1.3.2.2.1.3.1.5 0 0 .1.1.2.2.2.2.1.4 0 .5-.2l.2.2c.2.1.3 0 .5-.1.2 0 .4.1.6.1v.1c0 .1.1.1.2.2v.3c.1.1.3.2.4.1 0 .1 0 .1.1.2l.2.2v.2l.1.1c0 .1.6.2.6.2.1.1.1-.2.2-.1v.3c.1.2.4.2.5.1 0 .1 0 .2.1.2.1.1.2.2.3.2v.2c.1.1.2.2.4.1l.1.1v.1c0 .1.1.1.2.2 0 .1 0 .1.1.2-.1.1-.1.2-.1.4 0 .3.3.5.6.4h.1v.3c0 .2.1.3.2.4-.1.2-.1.4 0 .6.2.3.3.3.5.3-.1.1-.1.2-.1.3 0 .3.3.5.6.4-.4.2-.6.7-.4 1.1.1.1.2.3.3.3-.1.1-.1.3 0 .5 0 .1.1.2.2.2 0 .1 0 .2.1.3l.1.1c-.1.2-.4.4-.4.6-.5-1.1-9-2.7-9.9 3 2.1-4.2 8.8-2.8 9.5-1.4.7.4.7 1.7.4 2.3-.4.7-3.2.1-3.9 0 .4.6 2.1.9 2.5 1.4-.6-.1-6-3.2-7.9.4 2.1-2.5 6.3-.6 7.4.2.7.4 1.2.9 1.2 1.3-5.6-3.9-9.5-.7-8.8.2.9-.7 1.8-1.4 2.5-.9-.6.7.5 1.2 1.2 1.2 1.1 0 3.3.1 5 .9 2.2 1 2.6 4.4.7 9.3 1 2.1-1 7.3-4.1 8.6z"/><path class="st0" d="M32.1 54.8c-.2.1.7 6.5.4 2.6.2.5.1 1.9 1.2 2.6 2.4 1.4 6.8 1.2 9.3-.2.9-.2 1.4-.5 2.6-2.8-3.2-2.6-5.8-3.3-8.6-3.3-1.7-.8-5.4-.5-4.9 1.1zm12.3 2.6c.1.4-.1.7-.6.9-1.3.6-4.4.4-6.3.2-1.6-.2-3-.4-3.9-1-.9-.7-1.2-1.8-.3-1.9 1.6-.1 3.4.1 5.1.4 2.9.6 5.3 1.4 6 1.4zm26.9 3.8c1.3 0 2.5.1 3.6.4 1.1.2 2 .6 2.8 1.2.8.5 1.4 1.2 1.8 2.1.4.9.6 2 .6 3.3 0 1.4-.3 2.6-1 3.5-.6.9-1.6 1.7-2.8 2.3 1.7.5 3 1.4 3.8 2.6.8 1.2 1.3 2.7 1.3 4.5 0 1.4-.3 2.6-.8 3.6s-1.3 1.9-2.2 2.5c-.9.6-2 1.1-3.2 1.4-1 .3-2.2.4-3.5.4H58.2V61.2h13.1zm-.7 11.3c1.1 0 2-.3 2.7-.8.7-.5 1.1-1.4 1.1-2.5 0-.6-.1-1.2-.4-1.6-.2-.4-.5-.7-.9-1-.4-.2-.8-.4-1.3-.5-.5-.1-1-.1-1.6-.1h-5.7v6.5h6.1zm.3 11.8c.6 0 1.2-.1 1.7-.2s1-.3 1.4-.6c.4-.3.7-.6 1-1.1.2-.5.4-1.1.4-1.8 0-1.4-.4-2.4-1.2-3.1-.8-.6-1.9-.9-3.2-.9h-6.7v7.6h6.6zm11.6-9.2c.1-1.3.4-2.4 1-3.2.6-.9 1.3-1.5 2.2-2.1.9-.5 1.9-.9 3-1.1 1.1-.2 2.2-.3 3.3-.3 1 0 2 .1 3.1.2 1 .1 2 .4 2.8.8.9.4 1.6 1 2.1 1.7s.8 1.7.8 2.9v10.5c0 .9.1 1.8.2 2.6s.3 1.5.5 1.9h-5.6c-.1-.3-.2-.6-.3-1-.1-.3-.1-.7-.1-1-.9.9-1.9 1.5-3.1 1.9-1.2.4-2.4.5-3.7.5-1 0-1.9-.1-2.7-.4-.8-.2-1.6-.6-2.2-1.1-.6-.5-1.1-1.1-1.5-1.9-.4-.8-.5-1.6-.5-2.7s.2-2.1.6-2.8c.4-.7.9-1.3 1.6-1.8.6-.4 1.4-.8 2.2-1 .8-.2 1.6-.4 2.5-.5.8-.1 1.7-.2 2.5-.3.8-.1 1.5-.2 2.1-.4.6-.2 1.1-.4 1.5-.7.4-.3.5-.7.5-1.3 0-.6-.1-1.1-.3-1.4-.2-.4-.5-.6-.8-.8-.3-.2-.7-.3-1.1-.4-.4-.1-.9-.1-1.4-.1-1.1 0-1.9.2-2.6.7-.6.5-1 1.2-1.1 2.3h-5.5zm12.8 4.1c-.2.2-.5.4-.9.5-.4.1-.7.2-1.1.3-.4.1-.8.1-1.3.2-.4.1-.9.1-1.3.2l-1.2.3c-.4.1-.8.3-1.1.5-.3.2-.5.5-.7.8-.2.3-.3.8-.3 1.3s.1.9.3 1.2c.2.3.4.6.7.8s.7.3 1.1.4c.4.1.8.1 1.3.1 1.1 0 1.9-.2 2.5-.5.6-.4 1-.8 1.3-1.3.3-.5.5-1 .5-1.5.1-.5.1-.9.1-1.2v-2.1z"/></g></svg>